<svg xmlns="http://www.w3.org/2000/svg" version="1.1" xmlns:xlink="http://www.w3.org/1999/xlink" xmlns:svgjs="http://svgjs.dev/svgjs" viewBox="0 0 800 800"><defs><linearGradient x1="50%" y1="0%" x2="50%" y2="100%" id="ffflurry-grad" gradientTransform="rotate(270)"><stop stop-color="hsl(238, 42%, 50%)" stop-opacity="1" offset="0%"></stop><stop stop-color="hsl(1.4, 100%, 67%)" stop-opacity="1" offset="45%"></stop><stop stop-color="hsl(167, 52%, 78%)" stop-opacity="1" offset="100%"></stop></linearGradient></defs><rect width="100%" height="100%" fill="hsl(238, 42%, 50%)"></rect><g fill="url(#ffflurry-grad)"><rect width="136" height="14" x="123" y="741" rx="7" transform="rotate(45, 191, 748)" opacity="0.80"></rect><rect width="563" height="14" x="172.5" y="365" rx="7" transform="rotate(45, 454, 372)" opacity="0.98"></rect><rect width="644" height="14" x="-79" y="56" rx="7" transform="rotate(45, 243, 63)" opacity="0.27"></rect><rect width="856" height="14" x="57" y="66" rx="7" transform="rotate(45, 485, 73)" opacity="0.92"></rect><rect width="483" height="14" x="504.5" y="378" rx="7" transform="rotate(45, 746, 385)" opacity="0.42"></rect><rect width="537" height="14" x="98.5" y="62" rx="7" transform="rotate(45, 367, 69)" opacity="0.86"></rect><rect width="881" height="14" x="178.5" y="59" rx="7" transform="rotate(45, 619, 66)" opacity="0.22"></rect><rect width="70" height="14" x="517" y="524" rx="7" transform="rotate(45, 552, 531)" opacity="0.35"></rect><rect width="686" height="14" x="400" y="38" rx="7" transform="rotate(45, 743, 45)" opacity="0.73"></rect><rect width="519" height="14" x="357.5" y="210" rx="7" transform="rotate(45, 617, 217)" opacity="0.25"></rect><rect width="478" height="14" x="145" y="681" rx="7" transform="rotate(45, 384, 688)" opacity="0.96"></rect><rect width="531" height="14" x="-155.5" y="732" rx="7" transform="rotate(45, 110, 739)" opacity="0.68"></rect><rect width="606" height="14" x="92" y="250" rx="7" transform="rotate(45, 395, 257)" opacity="0.89"></rect><rect width="182" height="14" x="343" y="534" rx="7" transform="rotate(45, 434, 541)" opacity="0.52"></rect><rect width="501" height="14" x="368.5" y="416" rx="7" transform="rotate(45, 619, 423)" opacity="0.98"></rect><rect width="456" height="14" x="467" y="607" rx="7" transform="rotate(45, 695, 614)" opacity="0.91"></rect><rect width="289" height="14" x="83.5" y="379" rx="7" transform="rotate(45, 228, 386)" opacity="0.74"></rect><rect width="315" height="14" x="-105.5" y="165" rx="7" transform="rotate(45, 52, 172)" opacity="0.21"></rect><rect width="210" height="14" x="82" y="598" rx="7" transform="rotate(45, 187, 605)" opacity="0.57"></rect><rect width="715" height="14" x="385.5" y="151" rx="7" transform="rotate(45, 743, 158)" opacity="0.26"></rect><rect width="177" height="14" x="-55.5" y="742" rx="7" transform="rotate(45, 33, 749)" opacity="0.41"></rect><rect width="931" height="14" x="-404.5" y="317" rx="7" transform="rotate(45, 61, 324)" opacity="0.29"></rect><rect width="264" height="14" x="375" y="200" rx="7" transform="rotate(45, 507, 207)" opacity="0.11"></rect><rect width="554" height="14" x="7" y="719" rx="7" transform="rotate(45, 284, 726)" opacity="0.91"></rect><rect width="444" height="14" x="78" y="497" rx="7" transform="rotate(45, 300, 504)" opacity="0.38"></rect><rect width="400" height="14" x="337" y="708" rx="7" transform="rotate(45, 537, 715)" opacity="0.50"></rect><rect width="815" height="14" x="-228.5" y="261" rx="7" transform="rotate(45, 179, 268)" opacity="0.43"></rect><rect width="292" height="14" x="558" y="283" rx="7" transform="rotate(45, 704, 290)" opacity="0.84"></rect><rect width="665" height="14" x="-162.5" y="145" rx="7" transform="rotate(45, 170, 152)" opacity="0.99"></rect><rect width="928" height="14" x="-382" y="475" rx="7" transform="rotate(45, 82, 482)" opacity="0.60"></rect><rect width="566" height="14" x="-228" y="622" rx="7" transform="rotate(45, 55, 629)" opacity="0.95"></rect><rect width="614" height="14" x="-224" y="44" rx="7" transform="rotate(45, 83, 51)" opacity="0.32"></rect><rect width="712" height="14" x="-56" y="205" rx="7" transform="rotate(45, 300, 212)" opacity="0.90"></rect><rect width="312" height="14" x="559" y="730" rx="7" transform="rotate(45, 715, 737)" opacity="0.72"></rect><rect width="613" height="14" x="435.5" y="500" rx="7" transform="rotate(45, 742, 507)" opacity="0.71"></rect></g></svg>